External Loads File
version=1
nRows=77
nColumns=13
Range=5.000000e-03-10 seconds
endheader
time 	forceRightX 	forceRightY 	forceRightZ 	pointRightX 	pointRightY 	pointRightZ 	forceLeftX 	forceLeftY 	forceLeftZ 	pointLeftX 	pointLeftY 	pointLeftZ 		
2.505000 -16.909941 -88.332480 -0.000000 0.111599 0.384132 -0.166075 -226.235324 709.287817 -0.000000 0.387442 0.253086 -0.415208
2.510000 -16.956893 -85.572163 -0.000000 0.113318 0.388341 -0.166110 -218.887474 712.103474 -0.000000 0.385845 0.249058 -0.415143
2.515000 -17.277735 -83.198844 -0.000000 0.115176 0.392328 -0.166169 -211.574339 715.370422 -0.000000 0.384178 0.244882 -0.415057
2.520000 -17.999587 -81.148124 -0.000000 0.117198 0.396483 -0.166168 -203.809253 719.263864 -0.000000 0.382312 0.240790 -0.415031
2.525000 -19.088101 -79.360322 -0.000000 0.119309 0.400505 -0.166253 -196.082332 723.645788 -0.000000 0.380377 0.236617 -0.415003
2.530000 -20.520007 -77.768263 -0.000000 0.121535 0.404547 -0.166274 -188.493723 728.494165 -0.000000 0.378301 0.232613 -0.414934
2.535000 -22.271675 -76.323217 -0.000000 0.124028 0.408510 -0.166114 -180.738548 733.870733 -0.000000 0.376153 0.228574 -0.414917
2.540000 -24.248020 -75.023318 -0.000000 0.126496 0.412553 -0.166344 -172.764428 739.705301 -0.000000 0.373849 0.224539 -0.414915
2.545000 -26.268492 -73.903941 -0.000000 0.129058 0.416376 -0.166456 -165.217433 745.732729 -0.000000 0.371451 0.220618 -0.414817
2.550000 -28.311206 -72.925829 -0.000000 0.131772 0.420207 -0.166578 -157.238093 752.037782 -0.000000 0.368926 0.216684 -0.414846
2.555000 -30.233473 -72.049407 -0.000000 0.134612 0.424066 -0.166677 -149.293103 758.390593 -0.000000 0.366328 0.212951 -0.414827
2.560000 -31.946025 -71.170870 -0.000000 0.137392 0.427681 -0.166577 -141.470698 764.627846 -0.000000 0.363597 0.209078 -0.414872
2.565000 -33.385927 -70.145465 -0.000000 0.140211 0.431364 -0.166733 -133.756376 770.612774 -0.000000 0.360792 0.205392 -0.414863
2.570000 -34.666953 -68.744983 -0.000000 0.144050 0.434907 -0.166776 -124.365566 776.509630 -0.000000 0.357865 0.201671 -0.414887
2.575000 -35.458526 -66.988943 -0.000000 0.147040 0.438350 -0.166958 -116.722826 781.615020 -0.000000 0.354901 0.198009 -0.414896
2.580000 -35.913752 -64.705174 -0.000000 0.150197 0.441708 -0.167046 -109.041116 786.085541 -0.000000 0.351809 0.194519 -0.414960
2.585000 -36.045339 -61.850559 -0.000000 0.153515 0.445026 -0.167210 -101.110626 789.798423 -0.000000 0.348658 0.191080 -0.414931
2.590000 -35.886547 -58.424693 -0.000000 0.156966 0.448585 -0.167397 -92.512580 792.661695 -0.000000 0.345459 0.187677 -0.414959
2.595000 -35.372883 -54.518046 -0.000000 0.160348 0.451951 -0.167653 -84.356330 794.421195 -0.000000 0.342183 0.184421 -0.414940
2.600000 -34.598303 -50.164716 -0.000000 0.163952 0.455030 -0.167814 -76.112798 795.070453 -0.000000 0.338832 0.181289 -0.414922
2.605000 -33.668168 -45.451184 -0.000000 0.167618 0.458085 -0.168128 -67.630368 794.582709 -0.000000 0.335451 0.178183 -0.414896
2.610000 -32.700914 -40.507874 -0.000000 0.171402 0.461004 -0.168455 -58.979772 792.859729 -0.000000 0.331988 0.175249 -0.414798
2.615000 -31.827750 -35.481834 -0.000000 0.175281 0.463834 -0.168766 -49.962944 789.741582 -0.000000 0.328464 0.172369 -0.414773
2.620000 -31.138128 -30.568622 -0.000000 0.179372 0.466326 -0.169251 -40.713824 785.031880 -0.000000 0.324924 0.169601 -0.414631
2.625000 -30.694431 -25.967910 -0.000000 0.183396 0.469125 -0.169552 -31.012794 778.588175 -0.000000 0.321314 0.166905 -0.414514
2.630000 -30.498459 -21.857582 -0.000000 0.187492 0.471888 -0.169911 -21.182586 770.263374 -0.000000 0.317623 0.164380 -0.414455
2.635000 -30.545644 -18.324431 -0.000000 0.191836 0.474354 -0.170059 -11.433778 759.954646 -0.000000 0.313909 0.162013 -0.414340
2.640000 -30.819959 -15.415685 -0.000000 0.195964 0.476793 -0.170344 -2.691671 747.558193 -0.000000 0.310214 0.159629 -0.414185
2.645000 -31.328629 -13.089588 -0.000000 0.200221 0.478998 -0.170760 5.351542 732.915716 -0.000000 0.306444 0.157438 -0.414094
2.650000 -32.055567 -11.273600 -0.000000 0.204607 0.481184 -0.171604 12.753972 715.797882 -0.000000 0.302628 0.155329 -0.414066
2.655000 -32.975793 -9.867435 -0.000000 0.209092 0.483209 -0.171784 19.185588 696.059052 -0.000000 0.298793 0.153260 -0.414016
2.660000 -34.071077 -8.726981 -0.000000 0.213533 0.485074 -0.171962 24.406580 673.696628 -0.000000 0.294928 0.151314 -0.413966
2.665000 -35.330444 -7.645544 -0.000000 0.217977 0.486818 -0.172092 28.586777 648.747241 -0.000000 0.291051 0.149537 -0.414028
2.670000 -36.740450 -6.378039 -0.000000 0.222372 0.488406 -0.172138 31.810726 621.220319 -0.000000 0.287174 0.147870 -0.414046
2.675000 -38.281242 -4.615437 -0.000000 0.226961 0.489941 -0.172257 34.776454 591.045749 -0.000000 0.283293 0.146278 -0.414019
2.680000 -39.898888 -2.147941 -0.000000 0.231131 0.491387 -0.172196 36.701522 558.198796 -0.000000 0.279356 0.144893 -0.414053
2.685000 -41.554026 1.342841 -0.000000 0.235742 0.492625 -0.171985 39.133652 522.542846 -0.000000 0.275419 0.143616 -0.414093
2.690000 -43.229770 5.931363 -0.000000 0.240004 0.493754 -0.171880 41.110692 484.209822 -0.000000 0.271432 0.142518 -0.414093
2.695000 -44.942647 11.739194 -0.000000 0.244072 0.494840 -0.171879 43.058254 443.366998 -0.000000 0.267366 0.141578 -0.414151
2.700000 -46.690322 18.859848 -0.000000 0.248271 0.495733 -0.171592 45.308929 400.375892 -0.000000 0.263275 0.140856 -0.414163
2.705000 -48.472055 27.308519 -0.000000 0.252352 0.496526 -0.171553 47.570065 355.952913 -0.000000 0.259164 0.140319 -0.414168
2.710000 -50.265528 37.168494 -0.000000 0.256365 0.497236 -0.171460 49.908538 310.969219 -0.000000 0.255013 0.139787 -0.414154
2.715000 -52.022986 48.585948 -0.000000 0.260288 0.497899 -0.171356 52.235893 266.282024 -0.000000 0.250832 0.139540 -0.414101
2.720000 -53.636519 61.819393 -0.000000 0.264112 0.498460 -0.171252 54.494583 222.615956 -0.000000 0.246546 0.139425 -0.414022
2.725000 -55.043451 77.175474 -0.000000 0.267756 0.498895 -0.171112 56.334449 180.674027 -0.000000 0.242413 0.139380 -0.413974
2.730000 -56.109001 95.152298 -0.000000 0.271271 0.499236 -0.170946 57.743142 141.004750 -0.000000 0.238351 0.139499 -0.413919
2.735000 -56.750554 116.313708 -0.000000 0.274606 0.499344 -0.170802 58.652474 104.045822 -0.000000 0.234368 0.139752 -0.413817
2.740000 -56.897988 141.234685 -0.000000 0.277803 0.499516 -0.170668 59.142981 70.029807 -0.000000 0.230393 0.140145 -0.413707
2.745000 -56.533804 170.329735 -0.000000 0.280979 0.499511 -0.170437 59.387158 38.960403 -0.000000 0.226488 0.140734 -0.413515
2.750000 -56.002682 203.652613 -0.000000 0.283732 0.499412 -0.170219 59.613727 10.684411 -0.000000 0.222652 0.141596 -0.413344
2.755000 -55.341413 241.082327 -0.000000 0.286473 0.499229 -0.170056 60.153794 -15.258579 -0.000000 0.218718 0.142541 -0.413155
2.760000 -54.910506 282.096857 -0.000000 0.289179 0.498946 -0.170091 61.140184 -39.277210 -0.000000 0.214661 0.143713 -0.412961
2.765000 -55.100570 325.857363 -0.000000 0.291886 0.498434 -0.170147 62.513096 -61.764863 -0.000000 0.210545 0.145222 -0.412734
2.770000 -56.466820 371.193754 -0.000000 0.294611 0.497672 -0.170110 64.089524 -83.037636 -0.000000 0.206503 0.146625 -0.412582
2.775000 -59.009169 416.791989 -0.000000 0.297610 0.496646 -0.169843 65.532762 -103.403994 -0.000000 0.202575 0.148187 -0.412359
2.780000 -63.202746 461.177196 -0.000000 0.300652 0.495479 -0.169644 66.694306 -122.964054 -0.000000 0.198765 0.149717 -0.412186
2.785000 -68.478561 503.098241 -0.000000 0.304095 0.494015 -0.169605 67.311853 -141.890113 -0.000000 0.195052 0.151371 -0.411988
2.790000 -75.096239 541.387938 -0.000000 0.307627 0.492382 -0.169599 67.489399 -160.133813 -0.000000 0.191391 0.153160 -0.411739
2.795000 -82.779506 575.233665 -0.000000 0.311177 0.490505 -0.169585 67.290165 -177.564693 -0.000000 0.187707 0.155267 -0.411463
2.800000 -91.362012 604.149587 -0.000000 0.314808 0.488463 -0.169519 66.835101 -193.877237 -0.000000 0.184007 0.157558 -0.411192
2.805000 -100.675966 628.012908 -0.000000 0.318487 0.486215 -0.169520 66.223381 -208.654599 -0.000000 0.180269 0.159956 -0.410913
2.810000 -110.344665 647.062362 -0.000000 0.322366 0.483829 -0.169423 65.468159 -221.422240 -0.000000 0.176541 0.162509 -0.410660
2.815000 -120.475514 661.718685 -0.000000 0.326322 0.481213 -0.169128 64.751213 -231.659980 -0.000000 0.172908 0.165177 -0.410369
2.820000 -130.590117 672.699805 -0.000000 0.330397 0.478462 -0.169050 64.064716 -239.037021 -0.000000 0.169209 0.167952 -0.410214
2.825000 -140.908576 680.718896 -0.000000 0.334447 0.475462 -0.169024 63.657197 -243.346967 -0.000000 0.165557 0.170771 -0.410112
2.830000 -151.145066 686.634623 -0.000000 0.338470 0.472330 -0.168944 63.599878 -244.614832 -0.000000 0.161847 0.173673 -0.410117
2.835000 -161.169216 691.280055 -0.000000 0.342501 0.468994 -0.168865 63.972684 -243.034622 -0.000000 0.158188 0.176712 -0.410152
2.840000 -171.211068 695.359409 -0.000000 0.346400 0.465581 -0.168768 64.879735 -238.963376 -0.000000 0.154515 0.179845 -0.410276
2.845000 -181.162371 699.552062 -0.000000 0.350152 0.461956 -0.168675 66.210337 -232.910708 -0.000000 0.150911 0.183135 -0.410334
2.850000 -190.768163 704.433414 -0.000000 0.353900 0.458090 -0.168501 67.773564 -225.409233 -0.000000 0.147378 0.186553 -0.410416
2.855000 -200.825495 710.119241 -0.000000 0.357215 0.454076 -0.168095 69.695026 -216.867225 -0.000000 0.143914 0.190130 -0.410457
2.860000 -210.361839 717.033453 -0.000000 0.360870 0.450039 -0.168072 71.513095 -207.848504 -0.000000 0.140659 0.193893 -0.410231
2.865000 -220.166015 724.948252 -0.000000 0.364159 0.445807 -0.167774 73.313084 -198.692254 -0.000000 0.137440 0.197780 -0.410248
2.870000 -230.033793 733.785258 -0.000000 0.367429 0.441549 -0.167578 74.915067 -189.749942 -0.000000 0.134326 0.201751 -0.410276
2.875000 -239.907841 743.332297 -0.000000 0.370529 0.437120 -0.167246 76.227400 -181.289959 -0.000000 0.131386 0.205913 -0.410231
2.880000 -249.251928 753.475746 -0.000000 0.373595 0.432373 -0.167018 77.094144 -173.559296 -0.000000 0.128560 0.210179 -0.410220
2.885000 -258.494886 763.746925 -0.000000 0.376476 0.427572 -0.166747 77.644926 -166.622001 -0.000000 0.125838 0.214601 -0.410269
